<svg xmlns="http://www.w3.org/2000/svg" xmlns:xlink="http://www.w3.org/1999/xlink" version="1.1" id="Layer_1" x="0px" y="0px" enable-background="new 0 0 907 578" xml:space="preserve" viewBox="122 198.4 637.91 328.21">
<path fill="#181717" opacity="1.000000" stroke="none" d=" M121.996475,390.000000   C121.996475,327.049103 121.996475,264.598236 121.996475,201.988281   C126.757088,201.988281 131.052872,201.988281 135.863281,201.988281   C135.863281,234.802322 135.863281,267.691254 135.863281,300.786438   C178.447891,300.786438 220.518829,300.786438 262.948608,300.786438   C262.948608,267.855896 262.948608,235.099579 262.948608,202.093689   C267.681854,202.093689 272.055908,202.093689 276.634033,202.093689   C276.634033,273.114624 276.634033,343.869720 276.634033,414.898499   C272.184326,414.898499 267.911285,414.898499 263.203186,414.898499   C263.203186,380.313080 263.203186,345.559631 263.203186,310.490082   C220.711639,310.490082 178.649399,310.490082 136.125458,310.490082   C136.125458,345.218933 136.125458,379.954224 136.125458,414.929199   C131.270859,414.929199 126.871254,414.929199 121.996475,414.929199   C121.996475,406.739655 121.996475,398.619812 121.996475,390.000000  z"/>
<path fill="#181717" opacity="1.000000" stroke="none" d=" M292.988770,294.000000   C292.988770,263.178253 292.988770,232.856537 292.988770,201.835693   C303.149475,201.302933 313.176147,200.511734 323.214844,200.306305   C343.851959,199.884064 364.530243,199.508850 384.850769,204.051086   C389.831390,205.164383 394.772675,206.888840 399.406189,209.035675   C411.952026,214.848434 419.923706,224.638733 420.978027,238.549911   C421.776947,249.090652 421.929047,259.891266 420.555145,270.337708   C418.353058,287.081451 407.698212,297.563843 392.035095,303.076935   C378.841125,307.720917 365.078552,308.932648 351.233734,309.135681   C336.623505,309.349945 322.007721,309.183716 307.011047,309.183716   C307.011047,344.071350 307.011047,379.342743 307.011047,414.898346   C302.206635,414.898346 297.780151,414.898346 292.988770,414.898346   C292.988770,374.758179 292.988770,334.629089 292.988770,294.000000  M363.103668,297.863922   C371.237000,296.244293 379.504791,295.106201 387.469574,292.882812   C397.362335,290.121185 403.856598,283.112976 405.953796,273.161163   C407.583130,265.429504 408.607147,257.330139 408.258026,249.467117   C407.249359,226.747086 399.740479,217.521606 377.071838,213.988586   C361.393951,211.545120 345.278412,211.819992 329.347687,211.128036   C321.936310,210.806122 314.499359,211.073059 307.116547,211.073059   C307.116547,240.925186 307.116547,269.311310 307.116547,297.940277   C325.647461,297.940277 343.908661,297.940277 363.103668,297.863922  z"/>
<path fill="#456BA5" opacity="1.000000" stroke="none" d=" M563.865173,406.867798   C518.352661,433.685211 458.945129,413.051849 438.154114,363.374664   C429.292389,342.200867 427.175598,319.965454 428.576080,297.264801   C429.768585,277.934204 433.779785,259.358856 443.766083,242.487137   C460.716888,213.848892 486.138824,199.917725 519.168823,198.782883   C543.250916,197.955490 563.786072,205.607635 579.816711,223.675751   C585.116882,229.649582 588.892090,236.976395 593.142029,243.350800   C592.026550,244.677307 591.866211,245.031418 591.596497,245.165039   C582.920776,249.464279 582.919189,249.461060 578.112122,241.079636   C565.059082,218.320908 540.485229,206.485489 514.483521,209.435959   C479.917908,213.358185 458.749176,233.344986 448.561615,265.126434   C438.852631,295.414795 439.331421,326.241241 450.089600,356.373566   C462.211182,390.324677 490.918793,409.618164 526.802002,407.703796   C549.556702,406.489838 566.802490,395.284760 578.268860,375.521942   C583.219421,366.989471 583.366943,366.850769 592.583740,372.450623   C586.880371,386.978760 577.326721,398.300598 563.865173,406.867798  z"/>
<path fill="#456BA5" opacity="1.000000" stroke="none" d=" M612.926025,399.081268   C603.373108,389.615417 598.373596,382.287506 594.620667,372.141449   C596.615967,371.247375 598.707336,370.428406 600.687622,369.396271   C603.968750,367.686249 605.535400,368.811401 607.129517,372.041504   C616.418396,390.863831 631.411316,403.249176 652.039368,406.644226   C685.054565,412.078064 716.881592,399.196045 733.831909,364.153534   C744.274536,342.564758 746.201050,319.418549 744.549011,295.880371   C743.178955,276.359131 738.394226,257.862793 727.222107,241.353653   C704.957458,208.453094 658.969604,198.724197 627.681885,220.515198   C619.202271,226.421005 612.580872,234.025269 607.888428,243.278870   C604.793457,249.382233 604.755127,249.375427 598.281982,246.415070   C597.103394,245.876038 595.980713,245.214645 594.564209,244.468521   C602.058838,225.840607 614.989197,212.851425 633.001465,204.976440   C664.816528,191.066925 722.530579,196.399216 746.570312,248.737640   C764.172791,287.061127 764.117188,326.831268 747.769714,365.568817   C732.690552,401.301086 701.122070,419.343903 660.429016,418.139038   C642.405640,417.605408 626.759521,411.056335 612.926025,399.081268  z"/>
<path fill="#181717" opacity="1.000000" stroke="none" d=" M699.236328,466.216187   C715.616943,456.318298 732.622742,463.335205 737.126953,481.545410   C739.283936,490.265594 739.384277,499.055756 736.829712,507.666809   C731.351318,526.133118 709.555542,532.594971 694.670349,520.318787   C693.938660,519.715332 693.146362,519.185364 691.603821,518.046265   C691.263916,520.579773 691.017517,522.416138 690.706055,524.737488   C689.257935,524.850220 687.701599,524.971313 685.766785,525.121887   C685.766785,495.772583 685.766785,466.735199 685.766785,437.124420   C687.635803,436.747620 689.811279,436.309082 692.536621,435.759674   C692.536621,448.143738 692.536621,460.030243 692.536621,472.489990   C695.024841,470.141754 696.985413,468.291473 699.236328,466.216187  M731.018860,488.854279   C730.777283,487.214630 730.624023,485.556183 730.279785,483.938385   C727.959839,473.035614 722.596863,467.893768 713.274475,467.568970   C703.414673,467.225464 695.508789,472.739471 693.665588,483.095795   C692.194763,491.359924 692.616516,499.968903 692.354065,508.429657   C692.322144,509.460480 693.158020,510.583801 693.762573,511.558228   C697.937805,518.287964 706.348083,521.872864 714.519165,520.564819   C722.923523,519.219360 728.051697,514.119019 729.759705,506.117310   C730.891479,500.815125 730.710266,495.232605 731.018860,488.854279  z"/>
<path fill="#181717" opacity="1.000000" stroke="none" d=" M639.492493,469.055786   C636.348022,470.226440 633.607544,471.325439 630.609863,472.527618   C629.825012,470.820068 629.082581,469.204681 628.109802,467.088226   C639.501160,461.844574 650.922974,459.547638 662.812073,464.493744   C669.356262,467.216309 672.245972,472.950958 672.366638,479.671875   C672.635376,494.635529 672.450500,509.607330 672.450500,524.805725   C670.637085,524.805725 669.032043,524.805725 667.222107,524.805725   C666.822571,522.330383 666.418030,519.824097 665.911438,516.685608   C658.015747,525.041931 648.836060,527.678589 638.341736,525.280945   C629.761353,523.320618 625.342041,517.837036 625.118347,509.492279   C624.881226,500.645264 629.261353,493.973328 637.795715,492.195587   C644.238098,490.853607 650.977905,490.904327 657.592896,490.444000   C660.029419,490.274445 662.487610,490.416687 664.716858,490.416687   C665.072144,489.618591 665.288330,489.338654 665.316284,489.040985   C666.997498,471.173065 660.141724,464.406128 639.492493,469.055786  M632.219666,508.506958   C633.477783,517.277527 637.488037,521.130005 646.202332,520.316467   C661.114746,518.924194 668.447998,512.745667 664.794006,496.031921   C658.147217,496.031921 651.497009,495.676849 644.901001,496.122803   C636.869141,496.665863 633.916565,499.678040 632.219666,508.506958  z"/>
<path fill="#181717" opacity="1.000000" stroke="none" d=" M610.689819,525.466492   C603.245422,523.647034 600.656128,521.008484 599.882507,513.946472   C599.413879,509.667877 599.432434,505.323975 599.423889,501.009033   C599.382202,479.892151 599.404968,458.775208 599.404968,437.219666   C601.688965,436.755005 603.889160,436.307373 606.891846,435.696503   C606.891846,437.855652 606.891846,439.580933 606.891846,441.306213   C606.891724,462.762085 606.891541,484.217987 606.891541,505.673859   C606.891479,519.492004 606.891541,519.492004 620.599854,520.343628   C620.599854,521.869263 620.599854,523.416382 620.599854,525.535217   C617.332336,525.535217 614.218384,525.535217 610.689819,525.466492  z"/>
<path fill="#181717" opacity="1.000000" stroke="none" d=" M752.549927,525.886597   C748.776001,526.322021 745.898682,525.570801 745.947449,521.557495   C745.970642,519.648376 746.699951,516.965027 748.056641,516.072815   C749.444702,515.159912 752.742126,515.229614 753.839966,516.286255   C755.187683,517.583313 755.509705,520.350220 755.506714,522.480591   C755.505127,523.588928 753.851013,524.694946 752.549927,525.886597  z"/>
</svg>